<svg xmlns="http://www.w3.org/2000/svg" xmlns:xlink="http://www.w3.org/1999/xlink" width="500" zoomAndPan="magnify" viewBox="0 0 375 374.999991" height="500" preserveAspectRatio="xMidYMid meet" version="1.0"><defs><g/><clipPath id="7c7df8f2a8"><path d="M 61.003906 55 L 71 55 L 71 313 L 61.003906 313 Z M 61.003906 55 " clip-rule="nonzero"/></clipPath><clipPath id="5df09ffe39"><path d="M 89 27.132812 L 347 27.132812 L 347 37 L 89 37 Z M 89 27.132812 " clip-rule="nonzero"/></clipPath><clipPath id="a4a5374c69"><path d="M 89 331 L 347 331 L 347 341.382812 L 89 341.382812 Z M 89 331 " clip-rule="nonzero"/></clipPath><clipPath id="550034e3da"><path d="M 346 27.132812 L 375 27.132812 L 375 56 L 346 56 Z M 346 27.132812 " clip-rule="nonzero"/></clipPath><clipPath id="afe00a6eec"><path d="M 61.003906 27.132812 L 90 27.132812 L 90 56 L 61.003906 56 Z M 61.003906 27.132812 " clip-rule="nonzero"/></clipPath><clipPath id="d185034e61"><path d="M 346 312 L 375 312 L 375 341.382812 L 346 341.382812 Z M 346 312 " clip-rule="nonzero"/></clipPath><clipPath id="9029d7e867"><path d="M 61.003906 312 L 90 312 L 90 341.382812 L 61.003906 341.382812 Z M 61.003906 312 " clip-rule="nonzero"/></clipPath><clipPath id="b817fa3841"><path d="M 0 27.132812 L 76.582031 27.132812 L 76.582031 341.132812 L 0 341.132812 Z M 0 27.132812 " clip-rule="nonzero"/></clipPath></defs><path fill="#ffffff" d="M 365.863281 55.929688 L 375.253906 55.929688 L 375.253906 312.589844 L 365.863281 312.589844 Z M 365.863281 55.929688 " fill-opacity="1" fill-rule="nonzero"/><g clip-path="url(#7c7df8f2a8)"><path fill="#ffffff" d="M 61.003906 55.929688 L 70.394531 55.929688 L 70.394531 312.589844 L 61.003906 312.589844 Z M 61.003906 55.929688 " fill-opacity="1" fill-rule="nonzero"/></g><g clip-path="url(#5df09ffe39)"><path fill="#ffffff" d="M 89.800781 27.132812 L 346.457031 27.132812 L 346.457031 36.523438 L 89.800781 36.523438 Z M 89.800781 27.132812 " fill-opacity="1" fill-rule="nonzero"/></g><g clip-path="url(#a4a5374c69)"><path fill="#ffffff" d="M 89.800781 331.996094 L 346.457031 331.996094 L 346.457031 341.382812 L 89.800781 341.382812 Z M 89.800781 331.996094 " fill-opacity="1" fill-rule="nonzero"/></g><g clip-path="url(#550034e3da)"><path fill="#ffffff" d="M 365.863281 36.523438 L 365.863281 55.929688 L 375.253906 55.929688 L 375.253906 27.132812 L 346.457031 27.132812 L 346.457031 36.523438 Z M 365.863281 36.523438 " fill-opacity="1" fill-rule="nonzero"/></g><g clip-path="url(#afe00a6eec)"><path fill="#ffffff" d="M 70.394531 36.523438 L 89.800781 36.523438 L 89.800781 27.132812 L 61.003906 27.132812 L 61.003906 55.929688 L 70.394531 55.929688 Z M 70.394531 36.523438 " fill-opacity="1" fill-rule="nonzero"/></g><g clip-path="url(#d185034e61)"><path fill="#ffffff" d="M 365.863281 331.996094 L 346.457031 331.996094 L 346.457031 341.382812 L 375.253906 341.382812 L 375.253906 312.589844 L 365.863281 312.589844 Z M 365.863281 331.996094 " fill-opacity="1" fill-rule="nonzero"/></g><g clip-path="url(#9029d7e867)"><path fill="#ffffff" d="M 70.394531 331.996094 L 70.394531 312.589844 L 61.003906 312.589844 L 61.003906 341.382812 L 89.800781 341.382812 L 89.800781 331.996094 Z M 70.394531 331.996094 " fill-opacity="1" fill-rule="nonzero"/></g><g fill="#ffffff" fill-opacity="1"><g transform="translate(80.452864, 320.487902)"><g><path d="M 8.296875 -11.34375 C 8.296875 -22.226562 10 -32.28125 13.40625 -41.5 C 16.820312 -50.71875 21.019531 -59.015625 26 -66.390625 C 30.976562 -73.773438 37.523438 -82.445312 45.640625 -92.40625 C 53.941406 -102.726562 60.535156 -111.484375 65.421875 -118.671875 C 70.316406 -125.867188 74.46875 -134.125 77.875 -143.4375 C 81.289062 -152.757812 83 -162.859375 83 -173.734375 C 83 -180.191406 82.078125 -185.21875 80.234375 -188.8125 C 78.390625 -192.414062 75.066406 -194.21875 70.265625 -194.21875 C 62.335938 -194.21875 58.375 -187.113281 58.375 -172.90625 L 58.375 -143.859375 L 8.296875 -143.859375 L 7.75 -158.53125 C 7.75 -176.601562 9.59375 -191.445312 13.28125 -203.0625 C 16.96875 -214.6875 23.421875 -223.539062 32.640625 -229.625 C 41.867188 -235.707031 54.597656 -238.75 70.828125 -238.75 C 90.742188 -238.75 106.140625 -233.171875 117.015625 -222.015625 C 127.898438 -210.859375 133.34375 -195.039062 133.34375 -174.5625 C 133.34375 -161.46875 131.546875 -149.617188 127.953125 -139.015625 C 124.359375 -128.410156 119.929688 -119.140625 114.671875 -111.203125 C 109.421875 -103.273438 102.457031 -93.96875 93.78125 -83.28125 C 87.507812 -75.71875 82.300781 -68.984375 78.15625 -63.078125 C 74.007812 -57.171875 70.273438 -51.082031 66.953125 -44.8125 L 131.6875 -44.8125 L 131.6875 0 L 8.296875 0 Z M 8.296875 -11.34375 "/></g></g></g><g fill="#ffffff" fill-opacity="1"><g transform="translate(217.11364, 320.487902)"><g><path d="M 68.328125 2.21875 C 48.222656 2.21875 32.726562 -3.453125 21.84375 -14.796875 C 10.96875 -26.140625 5.53125 -42.328125 5.53125 -63.359375 L 5.53125 -170.703125 C 5.53125 -193.203125 10.785156 -210.351562 21.296875 -222.15625 C 31.816406 -233.957031 47.492188 -239.859375 68.328125 -239.859375 C 89.359375 -239.859375 105.128906 -233.957031 115.640625 -222.15625 C 126.148438 -210.351562 131.40625 -193.203125 131.40625 -170.703125 L 131.40625 -63.359375 C 131.40625 -42.140625 125.960938 -25.90625 115.078125 -14.65625 C 104.203125 -3.40625 88.617188 2.21875 68.328125 2.21875 Z M 68.328125 -41.5 C 71.835938 -41.5 74.695312 -43.113281 76.90625 -46.34375 C 79.125 -49.570312 80.234375 -53.398438 80.234375 -57.828125 L 80.234375 -175.125 C 80.234375 -181.945312 79.445312 -187.15625 77.875 -190.75 C 76.3125 -194.351562 73.128906 -196.15625 68.328125 -196.15625 C 63.535156 -196.15625 60.398438 -194.351562 58.921875 -190.75 C 57.453125 -187.15625 56.71875 -181.945312 56.71875 -175.125 L 56.71875 -57.828125 C 56.71875 -53.398438 57.773438 -49.570312 59.890625 -46.34375 C 62.015625 -43.113281 64.828125 -41.5 68.328125 -41.5 Z M 68.328125 -41.5 "/></g></g></g><g clip-path="url(#b817fa3841)"><path fill="#ffffff" d="M 0 27.132812 L 76.582031 27.132812 L 76.582031 341.246094 L 0 341.246094 Z M 0 27.132812 " fill-opacity="1" fill-rule="nonzero"/></g><g fill="#ffffff" fill-opacity="1"><g transform="translate(62.468464, 321.181898)"><g><path d="M -55.03125 -2.4375 L -55.03125 -16.984375 C -55.03125 -21.378906 -53.609375 -24.515625 -50.765625 -26.390625 C -47.929688 -28.273438 -43.78125 -29.21875 -38.3125 -29.21875 C -32.84375 -29.21875 -28.71875 -28.382812 -25.9375 -26.71875 C -23.164062 -25.050781 -21.78125 -22.0625 -21.78125 -17.75 L -21.78125 -13.265625 L 0 -13.265625 L 0 -2.4375 Z M -31.71875 -13.90625 C -31.71875 -15.226562 -31.960938 -16.195312 -32.453125 -16.8125 C -32.941406 -17.4375 -33.644531 -17.84375 -34.5625 -18.03125 C -35.476562 -18.226562 -36.789062 -18.328125 -38.5 -18.328125 C -40.8125 -18.328125 -42.476562 -18.066406 -43.5 -17.546875 C -44.519531 -17.035156 -45.03125 -16.015625 -45.03125 -14.484375 L -45.03125 -13.265625 L -31.71875 -13.265625 Z M -31.71875 -13.90625 "/></g></g></g><g fill="#ffffff" fill-opacity="1"><g transform="translate(62.468464, 290.951193)"><g><path d="M -55.03125 -2.4375 L -55.03125 -19.34375 C -55.03125 -22.039062 -54.421875 -24.125 -53.203125 -25.59375 C -51.984375 -27.0625 -50.273438 -28.050781 -48.078125 -28.5625 C -45.878906 -29.082031 -43.070312 -29.34375 -39.65625 -29.34375 C -36.539062 -29.34375 -34.101562 -28.9375 -32.34375 -28.125 C -30.59375 -27.3125 -29.378906 -25.898438 -28.703125 -23.890625 C -28.359375 -25.554688 -27.523438 -26.765625 -26.203125 -27.515625 C -24.878906 -28.265625 -23.085938 -28.640625 -20.828125 -28.640625 L 0 -28.515625 L 0 -17.75 L -21.53125 -17.75 C -23.0625 -17.75 -24.039062 -17.445312 -24.46875 -16.84375 C -24.894531 -16.25 -25.109375 -15.160156 -25.109375 -13.578125 L 0 -13.578125 L 0 -2.4375 Z M -34.65625 -16.265625 C -34.65625 -17.804688 -36.320312 -18.578125 -39.65625 -18.578125 C -41.101562 -18.578125 -42.191406 -18.507812 -42.921875 -18.375 C -43.648438 -18.25 -44.148438 -18.015625 -44.421875 -17.671875 C -44.703125 -17.335938 -44.84375 -16.847656 -44.84375 -16.203125 L -44.84375 -13.640625 L -34.65625 -13.640625 Z M -34.65625 -16.265625 "/></g></g></g><g fill="#ffffff" fill-opacity="1"><g transform="translate(62.468464, 260.400237)"><g><path d="M 0.515625 -15.5625 C 0.515625 -11.125 -0.835938 -7.75 -3.546875 -5.4375 C -6.265625 -3.132812 -10.078125 -1.984375 -14.984375 -1.984375 L -41.1875 -1.984375 C -45.925781 -1.984375 -49.503906 -3.132812 -51.921875 -5.4375 C -54.335938 -7.75 -55.546875 -11.125 -55.546875 -15.5625 C -55.546875 -20.007812 -54.335938 -23.382812 -51.921875 -25.6875 C -49.503906 -28 -45.925781 -29.15625 -41.1875 -29.15625 L -14.984375 -29.15625 C -10.035156 -29.15625 -6.210938 -28 -3.515625 -25.6875 C -0.828125 -23.382812 0.515625 -20.007812 0.515625 -15.5625 Z M -9.609375 -15.5625 C -9.609375 -16.550781 -10.035156 -17.210938 -10.890625 -17.546875 C -11.742188 -17.890625 -12.941406 -18.0625 -14.484375 -18.0625 L -41.390625 -18.0625 C -42.578125 -18.0625 -43.546875 -17.898438 -44.296875 -17.578125 C -45.046875 -17.265625 -45.421875 -16.613281 -45.421875 -15.625 C -45.421875 -13.789062 -44.03125 -12.875 -41.25 -12.875 L -14.421875 -12.875 C -12.835938 -12.875 -11.640625 -13.066406 -10.828125 -13.453125 C -10.015625 -13.835938 -9.609375 -14.539062 -9.609375 -15.5625 Z M -9.609375 -15.5625 "/></g></g></g></svg>