<svg xmlns="http://www.w3.org/2000/svg" xmlns:xlink="http://www.w3.org/1999/xlink" width="500" zoomAndPan="magnify" viewBox="0 0 375 374.999991" height="500" preserveAspectRatio="xMidYMid meet" version="1.0"><defs><g/><clipPath id="54c4205a47"><path d="M 363 59 L 373.40625 59 L 373.40625 314 L 363 314 Z M 363 59 " clip-rule="nonzero"/></clipPath><clipPath id="f72385b7d3"><path d="M 62.160156 59 L 72 59 L 72 314 L 62.160156 314 Z M 62.160156 59 " clip-rule="nonzero"/></clipPath><clipPath id="25d88729e4"><path d="M 90 30.972656 L 345 30.972656 L 345 41 L 90 41 Z M 90 30.972656 " clip-rule="nonzero"/></clipPath><clipPath id="3dac2b3b79"><path d="M 90 332 L 345 332 L 345 342.222656 L 90 342.222656 Z M 90 332 " clip-rule="nonzero"/></clipPath><clipPath id="46c1ebddfc"><path d="M 344 30.972656 L 373.40625 30.972656 L 373.40625 60 L 344 60 Z M 344 30.972656 " clip-rule="nonzero"/></clipPath><clipPath id="92132f7ad7"><path d="M 62.160156 30.972656 L 91 30.972656 L 91 60 L 62.160156 60 Z M 62.160156 30.972656 " clip-rule="nonzero"/></clipPath><clipPath id="e942ed18f9"><path d="M 344 313 L 373.40625 313 L 373.40625 342.222656 L 344 342.222656 Z M 344 313 " clip-rule="nonzero"/></clipPath><clipPath id="a1f2a52960"><path d="M 62.160156 313 L 91 313 L 91 342.222656 L 62.160156 342.222656 Z M 62.160156 313 " clip-rule="nonzero"/></clipPath><clipPath id="ad50ae45ee"><path d="M 1.710938 30.972656 L 77.59375 30.972656 L 77.59375 342.101562 L 1.710938 342.101562 Z M 1.710938 30.972656 " clip-rule="nonzero"/></clipPath></defs><g clip-path="url(#54c4205a47)"><path fill="#2b2b2b" d="M 363.984375 59.480469 L 373.277344 59.480469 L 373.277344 313.585938 L 363.984375 313.585938 Z M 363.984375 59.480469 " fill-opacity="1" fill-rule="nonzero"/></g><g clip-path="url(#f72385b7d3)"><path fill="#2b2b2b" d="M 62.160156 59.480469 L 71.453125 59.480469 L 71.453125 313.585938 L 62.160156 313.585938 Z M 62.160156 59.480469 " fill-opacity="1" fill-rule="nonzero"/></g><g clip-path="url(#25d88729e4)"><path fill="#2b2b2b" d="M 90.667969 30.972656 L 344.769531 30.972656 L 344.769531 40.269531 L 90.667969 40.269531 Z M 90.667969 30.972656 " fill-opacity="1" fill-rule="nonzero"/></g><g clip-path="url(#3dac2b3b79)"><path fill="#2b2b2b" d="M 90.667969 332.796875 L 344.769531 332.796875 L 344.769531 342.09375 L 90.667969 342.09375 Z M 90.667969 332.796875 " fill-opacity="1" fill-rule="nonzero"/></g><g clip-path="url(#46c1ebddfc)"><path fill="#2b2b2b" d="M 363.984375 40.269531 L 363.984375 59.480469 L 373.277344 59.480469 L 373.277344 30.972656 L 344.769531 30.972656 L 344.769531 40.269531 Z M 363.984375 40.269531 " fill-opacity="1" fill-rule="nonzero"/></g><g clip-path="url(#92132f7ad7)"><path fill="#2b2b2b" d="M 71.453125 40.269531 L 90.667969 40.269531 L 90.667969 30.972656 L 62.160156 30.972656 L 62.160156 59.480469 L 71.453125 59.480469 Z M 71.453125 40.269531 " fill-opacity="1" fill-rule="nonzero"/></g><g clip-path="url(#e942ed18f9)"><path fill="#2b2b2b" d="M 363.984375 332.796875 L 344.769531 332.796875 L 344.769531 342.09375 L 373.277344 342.09375 L 373.277344 313.585938 L 363.984375 313.585938 Z M 363.984375 332.796875 " fill-opacity="1" fill-rule="nonzero"/></g><g clip-path="url(#a1f2a52960)"><path fill="#2b2b2b" d="M 71.453125 332.796875 L 71.453125 313.585938 L 62.160156 313.585938 L 62.160156 342.09375 L 90.667969 342.09375 L 90.667969 332.796875 Z M 71.453125 332.796875 " fill-opacity="1" fill-rule="nonzero"/></g><g fill="#2b2b2b" fill-opacity="1"><g transform="translate(81.430058, 321.647732)"><g><path d="M 8.21875 -11.234375 C 8.21875 -22.015625 9.910156 -31.972656 13.296875 -41.109375 C 16.679688 -50.253906 20.835938 -58.484375 25.765625 -65.796875 C 30.703125 -73.109375 37.191406 -81.695312 45.234375 -91.5625 C 53.453125 -101.800781 59.984375 -110.484375 64.828125 -117.609375 C 69.671875 -124.734375 73.78125 -132.910156 77.15625 -142.140625 C 80.539062 -151.367188 82.234375 -161.375 82.234375 -172.15625 C 82.234375 -178.550781 81.320312 -183.53125 79.5 -187.09375 C 77.675781 -190.664062 74.382812 -192.453125 69.625 -192.453125 C 61.769531 -192.453125 57.84375 -185.414062 57.84375 -171.34375 L 57.84375 -142.546875 L 8.21875 -142.546875 L 7.671875 -157.078125 C 7.671875 -174.992188 9.5 -189.707031 13.15625 -201.21875 C 16.8125 -212.726562 23.207031 -221.5 32.34375 -227.53125 C 41.488281 -233.5625 54.101562 -236.578125 70.1875 -236.578125 C 89.914062 -236.578125 105.171875 -231.046875 115.953125 -219.984375 C 126.742188 -208.929688 132.140625 -193.265625 132.140625 -172.984375 C 132.140625 -160.003906 130.351562 -148.257812 126.78125 -137.75 C 123.21875 -127.25 118.832031 -118.066406 113.625 -110.203125 C 108.414062 -102.347656 101.519531 -93.117188 92.9375 -82.515625 C 86.71875 -75.023438 81.550781 -68.351562 77.4375 -62.5 C 73.332031 -56.65625 69.632812 -50.625 66.34375 -44.40625 L 130.484375 -44.40625 L 130.484375 0 L 8.21875 0 Z M 8.21875 -11.234375 "/></g></g></g><g fill="#2b2b2b" fill-opacity="1"><g transform="translate(216.843299, 321.647732)"><g><path d="M 67.71875 2.1875 C 47.789062 2.1875 32.4375 -3.429688 21.65625 -14.671875 C 10.875 -25.910156 5.484375 -41.945312 5.484375 -62.78125 L 5.484375 -169.140625 C 5.484375 -191.441406 10.691406 -208.441406 21.109375 -220.140625 C 31.523438 -231.835938 47.0625 -237.6875 67.71875 -237.6875 C 88.550781 -237.6875 104.175781 -231.835938 114.59375 -220.140625 C 125.007812 -208.441406 130.21875 -191.441406 130.21875 -169.140625 L 130.21875 -62.78125 C 130.21875 -41.757812 124.828125 -25.675781 114.046875 -14.53125 C 103.265625 -3.382812 87.820312 2.1875 67.71875 2.1875 Z M 67.71875 -41.125 C 71.1875 -41.125 74.015625 -42.722656 76.203125 -45.921875 C 78.398438 -49.117188 79.5 -52.910156 79.5 -57.296875 L 79.5 -173.53125 C 79.5 -180.289062 78.722656 -185.453125 77.171875 -189.015625 C 75.617188 -192.578125 72.46875 -194.359375 67.71875 -194.359375 C 62.957031 -194.359375 59.847656 -192.578125 58.390625 -189.015625 C 56.929688 -185.453125 56.203125 -180.289062 56.203125 -173.53125 L 56.203125 -57.296875 C 56.203125 -52.910156 57.25 -49.117188 59.34375 -45.921875 C 61.445312 -42.722656 64.238281 -41.125 67.71875 -41.125 Z M 67.71875 -41.125 "/></g></g></g><g clip-path="url(#ad50ae45ee)"><path fill="#2b2b2b" d="M 1.710938 30.972656 L 77.59375 30.972656 L 77.59375 342.214844 L 1.710938 342.214844 Z M 1.710938 30.972656 " fill-opacity="1" fill-rule="nonzero"/></g><g fill="#ffffff" fill-opacity="1"><g transform="translate(63.614508, 322.336108)"><g><path d="M -54.515625 -2.40625 L -54.515625 -16.8125 C -54.515625 -21.175781 -53.109375 -24.285156 -50.296875 -26.140625 C -47.484375 -28.003906 -43.367188 -28.9375 -37.953125 -28.9375 C -32.535156 -28.9375 -28.453125 -28.109375 -25.703125 -26.453125 C -22.953125 -24.804688 -21.578125 -21.847656 -21.578125 -17.578125 L -21.578125 -13.140625 L 0 -13.140625 L 0 -2.40625 Z M -31.421875 -13.765625 C -31.421875 -15.078125 -31.660156 -16.039062 -32.140625 -16.65625 C -32.628906 -17.269531 -33.328125 -17.671875 -34.234375 -17.859375 C -35.148438 -18.054688 -36.453125 -18.15625 -38.140625 -18.15625 C -40.429688 -18.15625 -42.082031 -17.898438 -43.09375 -17.390625 C -44.113281 -16.878906 -44.625 -15.863281 -44.625 -14.34375 L -44.625 -13.140625 L -31.421875 -13.140625 Z M -31.421875 -13.765625 "/></g></g></g><g fill="#ffffff" fill-opacity="1"><g transform="translate(63.614508, 292.38137)"><g><path d="M -54.515625 -2.40625 L -54.515625 -19.171875 C -54.515625 -21.835938 -53.910156 -23.898438 -52.703125 -25.359375 C -51.503906 -26.816406 -49.8125 -27.796875 -47.625 -28.296875 C -45.445312 -28.804688 -42.664062 -29.0625 -39.28125 -29.0625 C -36.195312 -29.0625 -33.785156 -28.660156 -32.046875 -27.859375 C -30.316406 -27.054688 -29.113281 -25.660156 -28.4375 -23.671875 C -28.09375 -25.328125 -27.265625 -26.523438 -25.953125 -27.265625 C -24.640625 -28.003906 -22.863281 -28.375 -20.625 -28.375 L 0 -28.25 L 0 -17.578125 L -21.328125 -17.578125 C -22.847656 -17.578125 -23.816406 -17.28125 -24.234375 -16.6875 C -24.660156 -16.09375 -24.875 -15.015625 -24.875 -13.453125 L 0 -13.453125 L 0 -2.40625 Z M -34.34375 -16.125 C -34.34375 -17.644531 -35.988281 -18.40625 -39.28125 -18.40625 C -40.71875 -18.40625 -41.796875 -18.34375 -42.515625 -18.21875 C -43.242188 -18.09375 -43.742188 -17.859375 -44.015625 -17.515625 C -44.285156 -17.179688 -44.421875 -16.695312 -44.421875 -16.0625 L -44.421875 -13.515625 L -34.34375 -13.515625 Z M -34.34375 -16.125 "/></g></g></g><g fill="#ffffff" fill-opacity="1"><g transform="translate(63.614508, 262.109304)"><g><path d="M 0.5 -15.421875 C 0.5 -11.023438 -0.835938 -7.679688 -3.515625 -5.390625 C -6.203125 -3.109375 -9.984375 -1.96875 -14.859375 -1.96875 L -40.8125 -1.96875 C -45.507812 -1.96875 -49.050781 -3.109375 -51.4375 -5.390625 C -53.832031 -7.679688 -55.03125 -11.023438 -55.03125 -15.421875 C -55.03125 -19.828125 -53.832031 -23.171875 -51.4375 -25.453125 C -49.050781 -27.734375 -45.507812 -28.875 -40.8125 -28.875 L -14.859375 -28.875 C -9.941406 -28.875 -6.148438 -27.734375 -3.484375 -25.453125 C -0.828125 -23.171875 0.5 -19.828125 0.5 -15.421875 Z M -9.515625 -15.421875 C -9.515625 -16.390625 -9.9375 -17.039062 -10.78125 -17.375 C -11.632812 -17.71875 -12.820312 -17.890625 -14.34375 -17.890625 L -41 -17.890625 C -42.1875 -17.890625 -43.148438 -17.734375 -43.890625 -17.421875 C -44.628906 -17.109375 -45 -16.460938 -45 -15.484375 C -45 -13.660156 -43.625 -12.75 -40.875 -12.75 L -14.28125 -12.75 C -12.71875 -12.75 -11.53125 -12.941406 -10.71875 -13.328125 C -9.914062 -13.710938 -9.515625 -14.410156 -9.515625 -15.421875 Z M -9.515625 -15.421875 "/></g></g></g></svg>